<svg xmlns="http://www.w3.org/2000/svg" viewBox="0 0 1300 900">
  <style>
    text { font-family: Arial, sans-serif; font-size: 14px; }
    .title { font-size: 20px; font-weight: bold; }
    .subtitle { font-size: 16px; font-style: italic; }
    .label { font-size: 12px; }
    .small-label { font-size: 10px; }
  </style>

  <!-- Background -->
  <rect width="100%" height="100%" fill="#f0f0f0"/>

  <!-- Title and Subtitle -->
  <text x="400" y="30" text-anchor="middle" class="title">TAR File Structure</text>
  <text x="400" y="50" text-anchor="middle" class="subtitle">Block-based format (512 bytes per block)</text>

  <!-- File 1 -->
  <g transform="translate(50, 80)">
    <text x="350" y="0" text-anchor="middle" class="label">File 1</text>
    <rect width="700" y="10" height="60" fill="#4e79a7"/>
    <rect x="0" y="10" width="100" height="60" fill="#f28e2b"/>
    <text x="50" y="45" text-anchor="middle" fill="white">Header</text>
    <text x="350" y="45" text-anchor="middle" fill="white">File Content (padded to multiple of 512 bytes)</text>
  </g>

  <!-- File 2 -->
  <g transform="translate(50, 180)">
    <text x="250" y="0" text-anchor="middle" class="label">File 2</text>
    <rect width="500" y="10" height="60" fill="#4e79a7"/>
    <rect x="0" y="10" width="100" height="60" fill="#f28e2b"/>
    <text x="50" y="45" text-anchor="middle" fill="white">Header</text>
    <text x="300" y="45" text-anchor="middle" fill="white">File Content (padded)</text>
  </g>

  <!-- End of Archive -->
  <g transform="translate(50, 280)">
    <rect width="200" height="60" fill="#e15759"/>
    <text x="100" y="35" text-anchor="middle" fill="white">End of Archive Marker</text>
    <text x="100" y="80" text-anchor="middle" class="label">Two 512-byte null blocks</text>
  </g>

  <!-- Legend -->
  <g transform="translate(650, 280)">
    <rect x="0" y="0" width="20" height="20" fill="#f28e2b"/>
    <text x="25" y="15" class="label">Header (512 bytes)</text>
    <rect x="0" y="25" width="20" height="20" fill="#4e79a7"/>
    <text x="25" y="40" class="label">File Content</text>
    <rect x="0" y="50" width="20" height="20" fill="#e15759"/>
    <text x="25" y="65" class="label">End of Archive</text>
  </g>

  <!-- Header Zoom -->
  <g transform="translate(50, 400)">
  	<text x="550" y="20" text-anchor="middle" class="subtitle">Header Structure (512 bytes)</text>

   	<!-- Horizontal stacked parts of the header -->
	<!-- File Name Field (100 bytes) -->
	<rect x="10" y="40" width="300" height="40" fill="lightgreen" stroke="black" />

	<!-- File Mode Field (8 bytes) -->
	<rect x="310" y="40" width="24" height="40" fill="lightblue" stroke="black" />

	<!-- UID Field (8 bytes) -->
	<rect x="334" y="40" width="24" height="40" fill="lightcoral" stroke="black" />

	<!-- GID Field (8 bytes) -->
	<rect x="358" y="40" width="24" height="40" fill="lightsalmon" stroke="black" />

	<!-- File Size Field (12 bytes) -->
	<rect x="382" y="40" width="36" height="40" fill="lightyellow" stroke="black" />

	<!-- Modification Time Field (12 bytes) -->
	<rect x="418" y="40" width="36" height="40" fill="lightpink" stroke="black" />

	<!-- Checksum Field (8 bytes) -->
	<rect x="454" y="40" width="24" height="40" fill="lightgray" stroke="black" />

	<!-- Type Flag Field (1 byte) -->
	<rect x="478" y="40" width="3" height="40" fill="lightsteelblue" stroke="black" />

	<!-- Link Name (100 bytes) -->
	<rect x="481" y="40" width="300" height="40" fill="lightcyan" stroke="black" />

	<!-- UStar Indicator (6 bytes) -->
	<rect x="781" y="40" width="18" height="40" fill="lightgoldenrodyellow" stroke="black" />

	<!-- Owner Name (32 bytes) -->
	<rect x="799" y="40" width="96" height="40" fill="lightcoral" stroke="black" />

	<!-- Group Name (32 bytes) -->
	<rect x="895" y="40" width="96" height="40" fill="lightseagreen" stroke="black" />

	<!-- Device Major Number (8 bytes) -->
	<rect x="991" y="40" width="24" height="40" fill="lightblue" stroke="black" />

	<!-- Device Minor Number (8 bytes) -->
	<rect x="1015" y="40" width="24" height="40" fill="lightgreen" stroke="black" />

	<!-- Prefix (155 bytes) -->
	<rect x="1039" y="40" width="150" height="40" fill="lightskyblue" stroke="black" />

	<!-- Legend -->
	<text x="10" y="180" font-family="Arial" font-size="14" fill="black">Legend:</text>

	<!-- Legend Entries -->
	<rect x="10" y="200" width="20" height="20" fill="lightgreen" stroke="black" />
	<text x="40" y="215" font-family="Arial" font-size="12" fill="black">File Name (100 bytes)</text>

	<rect x="10" y="230" width="20" height="20" fill="lightblue" stroke="black" />
	<text x="40" y="245" font-family="Arial" font-size="12" fill="black">Mode (8 bytes)</text>

	<rect x="10" y="260" width="20" height="20" fill="lightcoral" stroke="black" />
	<text x="40" y="275" font-family="Arial" font-size="12" fill="black">UID (8 bytes)</text>

	<rect x="10" y="290" width="20" height="20" fill="lightsalmon" stroke="black" />
	<text x="40" y="305" font-family="Arial" font-size="12" fill="black">GID (8 bytes)</text>

	<rect x="10" y="320" width="20" height="20" fill="lightyellow" stroke="black" />
	<text x="40" y="335" font-family="Arial" font-size="12" fill="black">Size (12 bytes)</text>

	<rect x="200" y="200" width="20" height="20" fill="lightpink" stroke="black" />
	<text x="230" y="215" font-family="Arial" font-size="12" fill="black">Modification Time (12 bytes)</text>

	<rect x="200" y="230" width="20" height="20" fill="lightgray" stroke="black" />
	<text x="230" y="245" font-family="Arial" font-size="12" fill="black">Checksum (8 bytes)</text>

	<rect x="200" y="260" width="20" height="20" fill="lightsteelblue" stroke="black" />
	<text x="230" y="275" font-family="Arial" font-size="12" fill="black">Type Flag (1 byte)</text>

	<rect x="200" y="290" width="20" height="20" fill="lightgray" stroke="black" />
	<text x="230" y="305" font-family="Arial" font-size="12" fill="black">Padding (Rest of 512 bytes)</text>

	<rect x="420" y="200" width="20" height="20" fill="lightcyan" stroke="black" />
	<text x="450" y="215" font-family="Arial" font-size="12" fill="black">Link Name (100 bytes)</text>

	<rect x="420" y="230" width="20" height="20" fill="lightgoldenrodyellow" stroke="black" />
	<text x="450" y="245" font-family="Arial" font-size="12" fill="black">UStar Indicator (6 bytes)</text>

	<rect x="420" y="260" width="20" height="20" fill="lightcoral" stroke="black" />
	<text x="450" y="275" font-family="Arial" font-size="12" fill="black">Owner Name (32 bytes)</text>

	<rect x="420" y="290" width="20" height="20" fill="lightseagreen" stroke="black" />
	<text x="450" y="305" font-family="Arial" font-size="12" fill="black">Group Name (32 bytes)</text>

	<rect x="620" y="200" width="20" height="20" fill="lightblue" stroke="black" />
	<text x="650" y="215" font-family="Arial" font-size="12" fill="black">Device Major (8 bytes)</text>

	<rect x="620" y="230" width="20" height="20" fill="lightgreen" stroke="black" />
	<text x="650" y="245" font-family="Arial" font-size="12" fill="black">Device Minor (8 bytes)</text>

	<rect x="620" y="260" width="20" height="20" fill="lightskyblue" stroke="black" />
	<text x="650" y="275" font-family="Arial" font-size="12" fill="black">Prefix (155 bytes)</text>
  </g>
</svg>
